# xmcd CD database file
#
# Track frame offsets:
#	183
#	48158
#	68150
#	94095
#	151485
#
# Disc length: 2451 seconds
#
# Revision: 0
# Processed by: cddbd v1.5.2PL0 Copyright (c) Steve Scherf et al.
# Submitted via: CDex 1.50
#
DISCID=37099105
DTITLE=Michel Sardaby - Five Cats' Blues
DYEAR=1968
DGENRE=Jazz
TTITLE0=Flippin' Out On Monday
TTITLE1=Punch
TTITLE2=Sonia
TTITLE3=My Sweet Eleonore
TTITLE4=Five Cats' Blues
EXTD=YEAR: 1968
EXTT0=
EXTT1=
EXTT2=
EXTT3=
EXTT4=
PLAYORDER=
